<?xml version="1.0" encoding="UTF-8"?>
<svg id="Layer_1" xmlns="http://www.w3.org/2000/svg" version="1.1" viewBox="0 0 96.6816183 10.7299912">
  <!-- Generator: Adobe Illustrator 30.0.0, SVG Export Plug-In . SVG Version: 2.1.1 Build 123)  -->
  <defs>
    <style>
      .st0 {
        fill: #424242;
      }

      .st1 {
        fill: #3e5bcf;
      }
    </style>
  </defs>
  <g>
    <path class="st1" d="M.9233398,5.6714258C.9233398,3.1401758,2.8662109,1.3296289,5.480957,1.3296289c1.4511719,0,2.6625977.5273438,3.4541016,1.4873047l-1.2475586,1.1513672c-.5634766-.6484375-1.2709961-.9833984-2.1108398-.9833984-1.5712891,0-2.6865234,1.1025391-2.6865234,2.6865234,0,1.5830078,1.1152344,2.6865234,2.6865234,2.6865234.8398438,0,1.5473633-.3359375,2.1108398-.9960938l1.2475586,1.1513672c-.7915039.9716797-2.0029297,1.4990234-3.4663086,1.4990234-2.6025391,0-4.5454102-1.8105469-4.5454102-4.3408203Z"/>
    <path class="st1" d="M17.9467773,1.4731836v8.3955078h-1.9428711v-3.4423828h-3.8139648v3.4423828h-1.9428711V1.4731836h1.9428711v3.3105469h3.8139648V1.4731836h1.9428711Z"/>
    <path class="st1" d="M25.4716797,8.0698633h-3.8979492l-.7436523,1.7988281h-1.9907227l3.7416992-8.3955078h1.9189453l3.7543945,8.3955078h-2.0390625l-.7436523-1.7988281ZM24.8598633,6.5942774l-1.3310547-3.2138672-1.331543,3.2138672h2.6625977Z"/>
    <path class="st1" d="M34.4838867,9.8686914l-1.6191406-2.3388672h-1.7871094v2.3388672h-1.9428711V1.4731836h3.6337891c2.2426758,0,3.6459961,1.1630859,3.6459961,3.046875,0,1.2587891-.6357422,2.1826172-1.7270508,2.6503906l1.8828125,2.6982422h-2.0864258ZM32.6606445,3.0561914h-1.5830078v2.9267578h1.5830078c1.1875,0,1.7871094-.5517578,1.7871094-1.4628906,0-.9238281-.5996094-1.4638672-1.7871094-1.4638672Z"/>
    <path class="st1" d="M43.6274414,5.5386133h1.7749023v3.40625c-.9233398.6962891-2.1948242,1.0673828-3.394043,1.0673828-2.6386719,0-4.581543-1.8105469-4.581543-4.3408203,0-2.53125,1.9428711-4.3417969,4.6176758-4.3417969,1.4750977,0,2.6982422.5039062,3.5136719,1.4511719l-1.2470703,1.1513672c-.6118164-.6474609-1.3193359-.9472656-2.1708984-.9472656-1.6308594,0-2.746582,1.0908203-2.746582,2.6865234,0,1.5703125,1.1157227,2.6865234,2.7226562,2.6865234.527832,0,1.0195312-.0966797,1.5112305-.3603516v-2.4589844Z"/>
    <path class="st1" d="M53.7070312,8.3091211v1.5595703h-6.5004883V1.4731836h6.3442383v1.5595703h-4.4135742v1.8222656h3.8979492v1.5117188h-3.8979492v1.9423828h4.5698242Z"/>
    <path class="st0" d="M55.2587891,1.4731836h3.8139648c2.7460938,0,4.6293945,1.6552734,4.6293945,4.1982422,0,2.5419922-1.8833008,4.1972656-4.6293945,4.1972656h-3.8139648V1.4731836ZM58.9765625,8.2739649c1.6669922,0,2.7583008-.9960938,2.7583008-2.6025391,0-1.6074219-1.0913086-2.6025391-2.7583008-2.6025391h-1.7749023v5.2050781h1.7749023Z"/>
    <path class="st0" d="M70.5195312,9.8686914l-1.6191406-2.3388672h-1.7871094v2.3388672h-1.9428711V1.4731836h3.6337891c2.2426758,0,3.6459961,1.1630859,3.6459961,3.046875,0,1.2587891-.6357422,2.1826172-1.7270508,2.6503906l1.8828125,2.6982422h-2.0864258ZM68.6962891,3.0561914h-1.5830078v2.9267578h1.5830078c1.1875,0,1.7871094-.5517578,1.7871094-1.4628906,0-.9238281-.5996094-1.4638672-1.7871094-1.4638672Z"/>
    <path class="st0" d="M88.0620117,4.5200586c0,1.8701172-1.4033203,3.0341797-3.6459961,3.0341797h-1.690918v2.3144531h-1.9428711V1.4731836h3.6337891c2.2426758,0,3.6459961,1.1630859,3.6459961,3.046875ZM86.0952148,4.5200586c0-.9238281-.5996094-1.4638672-1.7871094-1.4638672h-1.5830078v2.9150391h1.5830078c1.1875,0,1.7871094-.5400391,1.7871094-1.4511719Z"/>
    <path class="st0" d="M88.90625,9.041543l.659668-1.4638672c.7075195.515625,1.7626953.8759766,2.7705078.8759766,1.1513672,0,1.6191406-.3837891,1.6191406-.8994141,0-1.5712891-4.8813477-.4921875-4.8813477-3.6103516,0-1.4267578,1.1513672-2.6142578,3.5380859-2.6142578,1.0551758,0,2.1347656.2519531,2.9140625.7431641l-.5996094,1.4755859c-.7792969-.4443359-1.5830078-.6601562-2.3266602-.6601562-1.1513672,0-1.5952148.4316406-1.5952148.9599609,0,1.546875,4.8813477.4794922,4.8813477,3.5615234,0,1.4033203-1.1630859,2.6025391-3.5620117,2.6025391-1.3310547,0-2.6743164-.3955078-3.4179688-.9707031Z"/>
  </g>
  <g>
    <path class="st1" d="M76.1703754,6.3891834l-.7713982,2.3803004c-.7984034-.3649193-1.4472038-1.0638369-1.6324429-1.9388385-.4421517-2.0885624,1.446321-3.5053313,2.2661659-5.1874207.1615926-.3315423.2534555-.7332996.4005961-1.0546433.0200406-.0437672.0268457-.1034381.089393-.1085389l.6184853,1.5433681c.0612634.0450563.6498474-.4739903.7496065-.5506174.0347697-.0267073.0844279-.1189719.1314394-.0449658l-3.3511909,4.9613561h1.4993458Z"/>
    <path class="st0" d="M76.8020423,5.1927932l1.3747339-3.681764c-.0048839.4392096-.1179729.9237613-.1319871,1.3530575-.0183052.5607439.409299.9336557.6723784,1.4117073,1.284369,2.3338761.4516027,4.6498492-2.3579203,4.7550555l-1.3755758,1.2190992c.0885145-.2154181.2160602-.4183085.3359736-.6173387.9248976-1.5351295,2.0544325-2.9416673,3.0350378-4.4398168h-1.5526404Z"/>
  </g>
</svg>