<?xml version="1.0" encoding="UTF-8"?>
<svg id="Layer_1" xmlns="http://www.w3.org/2000/svg" version="1.1" viewBox="0 0 25.9259259 43.9643347">
  <defs>
    <style>
      .st0 {
        fill: #424242;
      }

      .st1 {
        fill: #3e5bcf;
      }
    </style>
  </defs>
  <g transform="rotate(180, 12.96, 21.98)">
    <path class="st1" d="M11.6909929,26.2552747l-3.3289719,10.2721901c-3.4455109-1.57481-6.245409-4.5909882-7.0448093-8.3670616C-.5908941,19.1472119,7.5588136,13.0331429,11.0968538,5.774083c.6973534-1.4307709,1.0937881-3.1645565,1.728775-4.5513153.086483-.1888771.1158524-.4463863.3857727-.468399l2.669075,6.6604061c.6793137-.3811817,1.2005424-.73493,1.5551643-.9911728.5155869-.3725529,1.1095009-.8500748,1.7164803-1.2672176.0000839-.0000572.0169182-.0116253.5305099-.3643131h0c-4.8206902,7.1544018-9.6413803,14.3088036-14.4620705,21.4632034h6.4704323Z"/>
    <path class="st1" d="M18.8237673,4.7064198"/>
    <path class="st0" d="M13.8970609,20.6807286l5.9326661-15.8886581c-.0210763,1.8954095-.5091124,3.9864933-.5695905,5.8391217-.0789961,2.4198911,1.7663305,4.0291926,2.9016499,6.0922251,5.5426964,10.071846,1.948892,20.0664312-10.1756086,20.520449l-5.9362994,5.2610246c.3819847-.9296371.9324082-1.8052111,1.4498945-2.6641261,3.991397-6.6248535,8.8659064-12.6947697,13.09771-19.1600361h-6.700422Z"/>
  </g>
</svg>